<svg width="196" height="57" viewBox="0 0 196 57" fill="none" xmlns="http://www.w3.org/2000/svg">
<path d="M33.88 39.2V34.08H40.72C41.9467 34.08 42.8667 33.76 43.48 33.12C44.0933 32.48 44.4 31.5733 44.4 30.4C44.4 29.2267 44.0933 28.3333 43.48 27.72C42.8667 27.08 41.9467 26.76 40.72 26.76H33.88V22.8H40.4C42.4267 22.8 44.2267 23.0533 45.8 23.56C47.3733 24.04 48.6133 24.8267 49.52 25.92C50.4267 27.0133 50.88 28.4933 50.88 30.36V30.92C50.88 32.6533 50.48 34.1467 49.68 35.4C48.88 36.6267 47.7067 37.5733 46.16 38.24C44.6133 38.88 42.6933 39.2 40.4 39.2H33.88ZM28.28 39.2V9.56H34.68V39.2H28.28ZM33.88 25.72V21.8H39.64C40.8933 21.8 41.8 21.48 42.36 20.84C42.92 20.2 43.2 19.3467 43.2 18.28C43.2 17.16 42.92 16.28 42.36 15.64C41.8 15 40.8933 14.68 39.64 14.68H33.88V9.56H39.24C42.6 9.56 45.1733 10.2667 46.96 11.68C48.7733 13.0933 49.68 15.1067 49.68 17.72V18.32C49.68 20.1333 49.2133 21.5867 48.28 22.68C47.3733 23.7733 46.1333 24.56 44.56 25.04C43.0133 25.4933 41.24 25.72 39.24 25.72H33.88ZM52.4153 39V17.08H57.4953V26.48H57.3753C57.3753 23.3867 58.0286 21 59.3353 19.32C60.6686 17.64 62.5886 16.8 65.0953 16.8H65.9353V22.32H64.3353C62.5753 22.32 61.2153 22.8 60.2553 23.76C59.2953 24.6933 58.8153 26.0533 58.8153 27.84V39H52.4153ZM67.0912 39V17.08H73.4912V39H67.0912ZM64.1712 21.8V17.08H73.4912V21.8H64.1712ZM69.5712 14.92C68.3712 14.92 67.4779 14.6133 66.8912 14C66.3312 13.36 66.0512 12.56 66.0512 11.6C66.0512 10.6133 66.3312 9.81333 66.8912 9.2C67.4779 8.56 68.3712 8.24 69.5712 8.24C70.7712 8.24 71.6512 8.56 72.2112 9.2C72.7979 9.81333 73.0912 10.6133 73.0912 11.6C73.0912 12.56 72.7979 13.36 72.2112 14C71.6512 14.6133 70.7712 14.92 69.5712 14.92ZM84.8506 47.72C83.784 47.72 82.6906 47.68 81.5706 47.6C80.4506 47.52 79.424 47.4133 78.4906 47.28V41.88C79.424 42.0133 80.4506 42.12 81.5706 42.2C82.7173 42.3067 83.7573 42.36 84.6906 42.36C86.424 42.36 87.824 42.16 88.8906 41.76C89.984 41.36 90.784 40.7467 91.2906 39.92C91.7973 39.12 92.0506 38.08 92.0506 36.8V32.44L93.2106 29.88C93.1573 31.8267 92.7706 33.4933 92.0506 34.88C91.3573 36.2667 90.384 37.3333 89.1306 38.08C87.8773 38.8 86.384 39.16 84.6506 39.16C83.1573 39.16 81.7973 38.8933 80.5706 38.36C79.3706 37.8 78.344 37.0267 77.4906 36.04C76.6373 35.0533 75.984 33.9067 75.5306 32.6C75.0773 31.2667 74.8506 29.8267 74.8506 28.28V27.36C74.8506 25.8133 75.0906 24.3733 75.5706 23.04C76.0506 21.7067 76.744 20.5467 77.6506 19.56C78.5573 18.5733 79.6373 17.8133 80.8906 17.28C82.144 16.72 83.5306 16.44 85.0506 16.44C86.8106 16.44 88.3306 16.8267 89.6106 17.6C90.9173 18.3733 91.944 19.5067 92.6906 21C93.4373 22.4933 93.8373 24.2933 93.8906 26.4L93.0106 26.64V17.08H98.0906V36.4C98.0906 39.0933 97.6106 41.2667 96.6506 42.92C95.6906 44.5733 94.224 45.7867 92.2506 46.56C90.304 47.3333 87.8373 47.72 84.8506 47.72ZM86.6506 33.76C87.6373 33.76 88.5306 33.5467 89.3306 33.12C90.1306 32.6667 90.7573 32.0267 91.2106 31.2C91.6906 30.3733 91.9306 29.3733 91.9306 28.2V27.04C91.9306 25.8933 91.6773 24.9333 91.1706 24.16C90.6906 23.36 90.0506 22.76 89.2506 22.36C88.4506 21.9333 87.5973 21.72 86.6906 21.72C85.624 21.72 84.6773 21.9733 83.8506 22.48C83.024 22.9867 82.384 23.6933 81.9306 24.6C81.4773 25.5067 81.2506 26.5733 81.2506 27.8C81.2506 29.0533 81.4773 30.1333 81.9306 31.04C82.4106 31.92 83.0506 32.6 83.8506 33.08C84.6773 33.5333 85.6106 33.76 86.6506 33.76ZM100.432 39V9.8H106.832V26.64H105.872C105.872 24.4267 106.152 22.56 106.712 21.04C107.272 19.52 108.099 18.3733 109.192 17.6C110.286 16.8 111.659 16.4 113.312 16.4H113.592C116.019 16.4 117.872 17.2667 119.152 19C120.432 20.7067 121.072 23.2133 121.072 26.52V39H114.672V26.12C114.672 24.92 114.312 23.96 113.592 23.24C112.899 22.4933 111.979 22.12 110.832 22.12C109.632 22.12 108.659 22.5067 107.912 23.28C107.192 24.0533 106.832 25.08 106.832 26.36V39H100.432ZM133.286 39.28C131.073 39.28 129.286 39.0133 127.926 38.48C126.566 37.92 125.566 37 124.926 35.72C124.313 34.4133 124.006 32.6533 124.006 30.44V11.16H129.966V30.68C129.966 31.72 130.233 32.52 130.766 33.08C131.326 33.6133 132.113 33.88 133.126 33.88H136.366V39.28H133.286ZM120.686 21.76V17.08H136.366V21.76H120.686ZM137.63 29.12V9.8H144.19V29.12H137.63ZM137.15 39V32.56H144.67V39H137.15Z" fill="#FFAD42"/>
<path d="M5.72269 21.5395C4.219 21.5395 3 22.865 3 24.5C3 26.135 4.219 27.4605 5.72269 27.4605V21.5395ZM12.2571 27.4605C13.7608 27.4605 14.9798 26.135 14.9798 24.5C14.9798 22.865 13.7608 21.5395 12.2571 21.5395V27.4605ZM15.2771 2.83807C14.1991 1.69807 12.4754 1.72451 11.427 2.89649C10.3787 4.06885 10.4027 5.94306 11.4807 7.08306L15.2771 2.83807ZM16.102 11.9699C17.1801 13.1099 18.9038 13.0835 19.9522 11.9115C21.0006 10.7391 20.9763 8.8649 19.8985 7.7249L16.102 11.9699ZM11.4807 41.9171C10.4027 43.057 10.3787 44.9314 11.427 46.1035C12.4754 47.2757 14.1991 47.3018 15.2771 46.1619L11.4807 41.9171ZM19.8985 41.275C20.9763 40.1351 21.0006 38.2608 19.9522 37.0886C18.9038 35.9165 17.1801 35.8903 16.102 37.0303L19.8985 41.275ZM5.72269 27.4605H12.2571V21.5395H5.72269V27.4605ZM11.4807 7.08306L16.102 11.9699L19.8985 7.7249L15.2771 2.83807L11.4807 7.08306ZM15.2771 46.1619L19.8985 41.275L16.102 37.0303L11.4807 41.9171L15.2771 46.1619Z" fill="#FFAD42"/>
</svg>
