<svg width="211" height="72" viewBox="0 0 211 72" fill="none" xmlns="http://www.w3.org/2000/svg">
<path d="M44.32 58.3V50.62H54.58C56.42 50.62 57.8 50.14 58.72 49.18C59.64 48.22 60.1 46.86 60.1 45.1C60.1 43.34 59.64 42 58.72 41.08C57.8 40.12 56.42 39.64 54.58 39.64H44.32V33.7H54.1C57.14 33.7 59.84 34.08 62.2 34.84C64.56 35.56 66.42 36.74 67.78 38.38C69.14 40.02 69.82 42.24 69.82 45.04V45.88C69.82 48.48 69.22 50.72 68.02 52.6C66.82 54.44 65.06 55.86 62.74 56.86C60.42 57.82 57.54 58.3 54.1 58.3H44.32ZM35.92 58.3V13.84H45.52V58.3H35.92ZM44.32 38.08V32.2H52.96C54.84 32.2 56.2 31.72 57.04 30.76C57.88 29.8 58.3 28.52 58.3 26.92C58.3 25.24 57.88 23.92 57.04 22.96C56.2 22 54.84 21.52 52.96 21.52H44.32V13.84H52.36C57.4 13.84 61.26 14.9 63.94 17.02C66.66 19.14 68.02 22.16 68.02 26.08V26.98C68.02 29.7 67.32 31.88 65.92 33.52C64.56 35.16 62.7 36.34 60.34 37.06C58.02 37.74 55.36 38.08 52.36 38.08H44.32ZM72.123 58V25.12H79.743V39.22H79.563C79.563 34.58 80.543 31 82.503 28.48C84.503 25.96 87.383 24.7 91.143 24.7H92.403V32.98H90.003C87.363 32.98 85.323 33.7 83.883 35.14C82.443 36.54 81.723 38.58 81.723 41.26V58H72.123ZM94.1369 58V25.12H103.737V58H94.1369ZM89.7569 32.2V25.12H103.737V32.2H89.7569ZM97.8569 21.88C96.0569 21.88 94.7169 21.42 93.8369 20.5C92.9969 19.54 92.5769 18.34 92.5769 16.9C92.5769 15.42 92.9969 14.22 93.8369 13.3C94.7169 12.34 96.0569 11.86 97.8569 11.86C99.6569 11.86 100.977 12.34 101.817 13.3C102.697 14.22 103.137 15.42 103.137 16.9C103.137 18.34 102.697 19.54 101.817 20.5C100.977 21.42 99.6569 21.88 97.8569 21.88ZM120.776 71.08C119.176 71.08 117.536 71.02 115.856 70.9C114.176 70.78 112.636 70.62 111.236 70.42V62.32C112.636 62.52 114.176 62.68 115.856 62.8C117.576 62.96 119.136 63.04 120.536 63.04C123.136 63.04 125.236 62.74 126.836 62.14C128.476 61.54 129.676 60.62 130.436 59.38C131.196 58.18 131.576 56.62 131.576 54.7V48.16L133.316 44.32C133.236 47.24 132.656 49.74 131.576 51.82C130.536 53.9 129.076 55.5 127.196 56.62C125.316 57.7 123.076 58.24 120.476 58.24C118.236 58.24 116.196 57.84 114.356 57.04C112.556 56.2 111.016 55.04 109.736 53.56C108.456 52.08 107.476 50.36 106.796 48.4C106.116 46.4 105.776 44.24 105.776 41.92V40.54C105.776 38.22 106.136 36.06 106.856 34.06C107.576 32.06 108.616 30.32 109.976 28.84C111.336 27.36 112.956 26.22 114.836 25.42C116.716 24.58 118.796 24.16 121.076 24.16C123.716 24.16 125.996 24.74 127.916 25.9C129.876 27.06 131.416 28.76 132.536 31C133.656 33.24 134.256 35.94 134.336 39.1L133.016 39.46V25.12H140.636V54.1C140.636 58.14 139.916 61.4 138.476 63.88C137.036 66.36 134.836 68.18 131.876 69.34C128.956 70.5 125.256 71.08 120.776 71.08ZM123.476 50.14C124.956 50.14 126.296 49.82 127.496 49.18C128.696 48.5 129.636 47.54 130.316 46.3C131.036 45.06 131.396 43.56 131.396 41.8V40.06C131.396 38.34 131.016 36.9 130.256 35.74C129.536 34.54 128.576 33.64 127.376 33.04C126.176 32.4 124.896 32.08 123.536 32.08C121.936 32.08 120.516 32.46 119.276 33.22C118.036 33.98 117.076 35.04 116.396 36.4C115.716 37.76 115.376 39.36 115.376 41.2C115.376 43.08 115.716 44.7 116.396 46.06C117.116 47.38 118.076 48.4 119.276 49.12C120.516 49.8 121.916 50.14 123.476 50.14ZM144.149 58V14.2H153.749V39.46H152.309C152.309 36.14 152.729 33.34 153.569 31.06C154.409 28.78 155.649 27.06 157.289 25.9C158.929 24.7 160.989 24.1 163.469 24.1H163.889C167.529 24.1 170.309 25.4 172.229 28C174.149 30.56 175.109 34.32 175.109 39.28V58H165.509V38.68C165.509 36.88 164.969 35.44 163.889 34.36C162.849 33.24 161.469 32.68 159.749 32.68C157.949 32.68 156.489 33.26 155.369 34.42C154.289 35.58 153.749 37.12 153.749 39.04V58H144.149ZM193.429 58.42C190.109 58.42 187.429 58.02 185.389 57.22C183.349 56.38 181.849 55 180.889 53.08C179.969 51.12 179.509 48.48 179.509 45.16V16.24H188.449V45.52C188.449 47.08 188.849 48.28 189.649 49.12C190.489 49.92 191.669 50.32 193.189 50.32H198.049V58.42H193.429ZM174.529 32.14V25.12H198.049V32.14H174.529ZM199.945 43.18V14.2H209.785V43.18H199.945ZM199.225 58V48.34H210.505V58H199.225Z" fill="black"/>
<path d="M3.78151 29.9211C1.69306 29.9211 0 31.7474 0 34C0 36.2527 1.69306 38.079 3.78151 38.079V29.9211ZM12.8571 38.079C14.9456 38.079 16.6387 36.2527 16.6387 34C16.6387 31.7474 14.9456 29.9211 12.8571 29.9211V38.079ZM17.0515 4.15468C15.5543 2.58401 13.1602 2.62044 11.7042 4.23516C10.2482 5.85042 10.2815 8.43267 11.7787 10.0033L17.0515 4.15468ZM18.1972 16.7363C19.6946 18.307 22.0886 18.2705 23.5447 16.6558C25.0008 15.0406 24.9671 12.4583 23.4701 10.8876L18.1972 16.7363ZM11.7787 57.9969C10.2815 59.5675 10.2482 62.1499 11.7042 63.7649C13.1602 65.3798 15.5543 65.4158 17.0515 63.8452L11.7787 57.9969ZM23.4701 57.1123C24.9671 55.5417 25.0008 52.9593 23.5447 51.3443C22.0886 49.7294 19.6946 49.6934 18.1972 51.2639L23.4701 57.1123ZM3.78151 38.079H12.8571V29.9211H3.78151V38.079ZM11.7787 10.0033L18.1972 16.7363L23.4701 10.8876L17.0515 4.15468L11.7787 10.0033ZM17.0515 63.8452L23.4701 57.1123L18.1972 51.2639L11.7787 57.9969L17.0515 63.8452Z" fill="black"/>
</svg>
